<?xml version="1.0" standalone="no"?>
<!DOCTYPE svg PUBLIC "-//W3C//DTD SVG 20010904//EN"
 "http://www.w3.org/TR/2001/REC-SVG-20010904/DTD/svg10.dtd">
<svg version="1.0" xmlns="http://www.w3.org/2000/svg"
 width="1600.000000pt" height="1600.000000pt" viewBox="0 0 1600.000000 1600.000000"
 preserveAspectRatio="xMidYMid meet">

<g transform="translate(0.000000,1600.000000) scale(0.100000,-0.100000)"
fill="#000000" stroke="none">
<path d="M0 8000 l0 -8000 8000 0 8000 0 0 8000 0 8000 -8000 0 -8000 0 0
-8000z m12160 6135 c518 -60 977 -195 1428 -420 416 -208 702 -414 1037 -747
296 -294 501 -576 689 -948 222 -437 346 -863 412 -1414 24 -200 29 -669 10
-883 -85 -936 -505 -1862 -1249 -2756 -102 -122 -139 -165 -292 -336 -67 -76
-602 -612 -685 -686 -139 -125 -338 -302 -410 -365 -41 -36 -77 -68 -80 -71
-34 -38 -739 -611 -1175 -954 -132 -103 -269 -212 -305 -240 -36 -28 -92 -72
-125 -98 -33 -26 -121 -95 -195 -153 -74 -59 -173 -136 -220 -173 -99 -78
-369 -288 -444 -345 -28 -22 -121 -94 -206 -161 -261 -204 -672 -522 -1200
-927 -135 -104 -252 -194 -260 -201 -9 -6 -51 -39 -95 -73 -44 -33 -123 -94
-175 -134 -260 -199 -478 -360 -488 -360 -9 0 -12 487 -12 2010 l0 2009 43 53
c47 58 145 141 192 163 74 35 219 78 325 95 30 5 96 16 145 24 99 17 333 41
490 51 247 15 408 100 487 257 80 158 76 338 -11 478 -48 78 -67 160 -52 230
11 52 66 176 82 186 12 7 11 51 -1 59 -17 11 -11 43 7 41 30 -2 25 30 -14 96
-29 48 -51 70 -90 93 -66 38 -74 58 -36 95 36 36 71 127 82 215 10 82 -1 109
-49 120 -17 4 -34 13 -37 21 -3 8 -11 14 -18 14 -7 0 -24 15 -37 33 -36 47
-98 161 -98 180 0 9 30 47 68 84 152 153 210 243 235 358 16 78 -8 151 -66
200 -50 43 -129 90 -212 126 -33 14 -78 38 -99 52 -21 15 -44 27 -51 27 -6 0
-20 9 -30 20 -10 11 -22 20 -28 20 -5 0 -22 10 -37 23 -15 12 -40 31 -56 42
-81 58 -256 215 -317 285 -128 146 -203 414 -163 584 22 91 12 142 -32 168
-21 13 -36 35 -52 80 -27 74 -84 184 -110 213 -9 11 -29 38 -43 60 -14 22 -40
56 -57 75 -18 19 -60 67 -93 105 -34 39 -108 117 -164 175 l-102 105 -1 200
c-1 260 -2 245 11 242 6 -1 21 35 34 80 159 539 497 1078 953 1514 359 344
832 653 1317 862 277 119 665 209 1015 236 166 13 542 5 710 -14z"/>
</g>
</svg>
